<svg xmlns="http://www.w3.org/2000/svg" width="31.011" height="27.017" viewBox="0 0 31.011 27.017">
  <path id="solana-grey" d="M30.848,21.3,25.729,26.65a1.189,1.189,0,0,1-.4.272,1.216,1.216,0,0,1-.474.1H.593a.606.606,0,0,1-.326-.1.583.583,0,0,1-.221-.254.565.565,0,0,1-.041-.329.572.572,0,0,1,.151-.3L5.281,20.7a1.189,1.189,0,0,1,.395-.271,1.216,1.216,0,0,1,.473-.1H30.413a.606.606,0,0,1,.326.1.585.585,0,0,1,.219.253.566.566,0,0,1,.041.329A.572.572,0,0,1,30.848,21.3Zm-5.119-10.77a1.189,1.189,0,0,0-.4-.272,1.216,1.216,0,0,0-.474-.1H.593a.605.605,0,0,0-.326.1.583.583,0,0,0-.219.253.565.565,0,0,0-.041.329.572.572,0,0,0,.151.3l5.122,5.347a1.189,1.189,0,0,0,.395.271,1.216,1.216,0,0,0,.473.1H30.413a.606.606,0,0,0,.326-.1.585.585,0,0,0,.219-.253A.566.566,0,0,0,31,16.175a.572.572,0,0,0-.151-.3ZM.593,6.69H24.859a1.216,1.216,0,0,0,.474-.1,1.189,1.189,0,0,0,.4-.272L30.848.974A.572.572,0,0,0,31,.677.566.566,0,0,0,30.96.348.585.585,0,0,0,30.739.1a.606.606,0,0,0-.326-.1H6.148a1.216,1.216,0,0,0-.473.1,1.189,1.189,0,0,0-.395.271L.16,5.716a.572.572,0,0,0-.151.3.565.565,0,0,0,.041.329.583.583,0,0,0,.218.253.606.606,0,0,0,.325.1Z" transform="translate(0.003 0)"/>
</svg>
